<svg width="316" height="152" viewBox="0 0 316 152" fill="none" xmlns="http://www.w3.org/2000/svg">
<g filter="url(#filter0_d_3_445)">
<rect x="4" y="8.70496" width="306.019" height="125" transform="rotate(-0.693692 4 8.70496)" fill="#FFF599"/>
<path d="M70.9169 42.7724C71.3271 42.7991 71.6736 42.8157 71.9565 42.8222C72.2394 42.8287 72.4912 42.8379 72.7119 42.8499C72.9609 42.828 73.2099 42.8061 73.459 42.7842C73.7053 42.7312 74.0125 42.6571 74.3806 42.562C75.0572 42.4084 75.6574 42.2772 76.1811 42.1684C76.7333 42.0258 77.3335 41.8946 77.9817 41.7748C78.1657 41.7273 78.3525 41.7108 78.542 41.7256C78.7627 41.7375 78.9664 41.7353 79.1532 41.7189C79.5579 41.6833 79.9456 41.6335 80.3165 41.5696C80.7184 41.5028 81.0892 41.4389 81.4289 41.3776C81.5507 41.3356 81.6569 41.2948 81.7476 41.2555C81.8382 41.2162 81.9316 41.208 82.0277 41.2309C82.3079 41.2062 82.5881 41.1816 82.8682 41.157C83.1457 41.1012 83.4029 41.1727 83.64 41.3715C83.7608 41.6745 83.8069 41.843 83.7785 41.8769C83.7502 41.9108 83.7231 41.9602 83.6975 42.0252C83.7019 42.4326 83.6575 42.6404 83.5641 42.6486C83.5018 42.6541 83.4734 42.688 83.4789 42.7502C83.2353 42.8344 83.0229 42.9158 82.8416 42.9945C82.6887 43.0393 82.5724 43.1437 82.4927 43.3075C81.9744 43.4786 81.479 43.5535 81.0066 43.5323C80.5626 43.4772 80.1167 43.5791 79.6689 43.8381C79.4592 43.9507 79.2367 44.0957 79.0013 44.2732C78.7944 44.4169 78.5142 44.4416 78.1608 44.3471C77.8495 44.3745 77.4929 44.4216 77.0909 44.4883C76.689 44.555 76.3026 44.6203 75.9318 44.6843C75.2213 44.8095 74.6041 44.9265 74.0804 45.0353C73.5851 45.1102 73.1053 45.1838 72.6411 45.2559C72.1741 45.297 71.693 45.355 71.1976 45.4299C70.7334 45.5021 70.1589 45.5683 69.474 45.6285C69.2441 45.8683 69.0962 46.148 69.0302 46.4675C68.9953 46.7842 68.8615 47.047 68.6289 47.2556C68.4319 47.869 68.2651 48.2915 68.1286 48.5231C67.9894 48.7235 67.901 48.9666 67.8633 49.2522C67.4768 49.8509 67.1241 50.4779 66.8053 51.1334C66.5148 51.755 66.1594 52.3509 65.739 52.9211C65.7068 53.269 65.6097 53.5913 65.4475 53.8879C65.3138 54.1506 65.2349 54.5026 65.211 54.9439C64.9096 55.441 64.7057 55.9765 64.5994 56.5505C64.493 57.1245 64.3426 57.7338 64.1483 58.3783C64.108 58.6328 64.052 58.8887 63.9805 59.1459C63.9374 59.3693 63.8801 59.6096 63.8086 59.8669C63.7115 60.1891 63.5818 60.4986 63.4197 60.7951C63.2859 61.0579 63.1549 61.3517 63.0266 61.6767C62.9699 61.7444 62.9469 61.8406 62.9579 61.9651C62.9661 62.0585 62.9574 62.1377 62.9317 62.2027C62.8575 62.4288 62.7819 62.6393 62.7049 62.8343C62.6252 62.9982 62.5611 63.1607 62.5125 63.3218C62.4639 63.4829 62.4323 63.6582 62.4176 63.8478C62.4313 64.0034 62.4138 64.1618 62.3652 64.3229C62.3423 64.4191 62.3194 64.5152 62.2965 64.6113C62.2708 64.6763 62.2465 64.7569 62.2236 64.853C62.1685 65.297 62.1945 65.5928 62.3016 65.7402C62.4087 65.8876 62.5002 66.0364 62.5761 66.1866C62.6548 66.3679 62.7321 66.5337 62.8081 66.6838C62.8813 66.8029 62.9403 66.9389 62.9851 67.0918C63.1462 67.1403 63.2918 67.1903 63.4218 67.2416C63.5829 67.2902 63.7413 67.3076 63.897 67.2939C64.0865 67.3086 64.282 67.213 64.4835 67.0071C64.6822 66.77 64.858 66.6291 65.011 66.5843C65.2234 66.5029 65.423 66.4539 65.6098 66.4375C65.8277 66.4184 66.0104 66.3552 66.1578 66.2482C66.3309 66.0761 66.4729 65.9068 66.5837 65.7402C66.6945 65.5736 66.8562 65.4496 67.0686 65.3681C67.5557 65.1998 67.8121 65.0832 67.8378 65.0182C67.8607 64.9221 67.9587 64.788 68.1318 64.6159C68.336 64.4411 68.5105 64.2846 68.6552 64.1464C68.8283 63.9743 69.0325 63.7995 69.2679 63.6219C69.5655 63.4389 69.7285 63.3305 69.7569 63.2966C69.8164 63.26 69.9469 63.1387 70.1484 62.9328C70.446 62.7498 70.6956 62.5553 70.8971 62.3494C71.0985 62.1434 71.3325 61.9503 71.599 61.77C71.8994 61.6181 72.0793 61.5239 72.1388 61.4873C72.1956 61.4196 72.2226 61.3701 72.2199 61.339C72.2483 61.3051 72.2753 61.2557 72.301 61.1907C72.3578 61.123 72.5038 61.0003 72.7392 60.8228C72.8418 60.5628 72.9641 60.3481 73.1061 60.1788C73.248 60.0095 73.417 59.7907 73.613 59.5225C73.7807 59.2882 73.951 59.085 74.1241 58.9129C74.3283 58.7381 74.5014 58.566 74.6434 58.3967C74.7313 58.3262 74.8037 58.2571 74.8604 58.1894C74.9145 58.0905 75.018 58.0187 75.1709 57.9739C75.344 57.8018 75.4731 57.665 75.5583 57.5634C75.6719 57.4279 75.8436 57.2403 76.0735 57.0005C76.1303 56.9327 76.2012 56.8481 76.2864 56.7465C76.3716 56.6449 76.444 56.5757 76.5035 56.5391C76.628 56.5282 76.7255 56.5667 76.796 56.6546C76.8976 56.7398 77.0106 56.7769 77.1351 56.7659C77.1396 57.1734 77.1473 57.4393 77.1582 57.5639C77.1665 57.6573 77.1449 57.7689 77.0936 57.8989C76.9314 58.1955 76.7272 58.3703 76.4809 58.4234C76.2657 58.4736 76.1096 58.6599 76.0124 58.9822C75.9136 58.9281 75.7877 58.9235 75.6348 58.9683C75.513 59.0104 75.4237 59.0653 75.3669 59.133C75.4401 59.2521 75.4808 59.3583 75.489 59.4517C75.4972 59.5451 75.5224 59.6527 75.5645 59.7744C75.0534 60.384 74.7195 60.8683 74.5629 61.2271C74.2249 61.6647 74.0431 61.9159 74.0174 61.9809C73.989 62.0148 73.9748 62.0317 73.9748 62.0317C73.9748 62.0317 73.9606 62.0486 73.9322 62.0825C73.9038 62.1164 73.8044 62.2349 73.6341 62.4381C73.2284 62.8189 72.9303 63.1745 72.7397 63.5049C72.5492 63.8354 72.2469 64.1443 71.833 64.4316C71.5125 64.7108 71.2954 64.9181 71.1819 65.0536C71.0683 65.189 70.8966 65.3767 70.6667 65.6165C70.5531 65.7519 70.4409 65.903 70.3301 66.0696C70.2476 66.2023 70.1341 66.3378 69.9894 66.476C69.7851 66.6508 69.5795 66.81 69.3726 66.9537C69.1967 67.0946 69.0392 67.2653 68.9 67.4658C68.4522 67.7248 68.1317 68.0039 67.9384 68.3032C67.7762 68.5998 67.5038 68.8904 67.121 69.1751C66.8572 69.3865 66.4886 69.6542 66.0152 69.9781C65.5729 70.2993 65.186 70.5373 64.8545 70.6919C64.7638 70.7312 64.6732 70.7706 64.5825 70.8099C64.523 70.8465 64.4479 70.8845 64.3573 70.9238C64.0945 70.7901 63.8318 70.6563 63.5691 70.5226C63.3375 70.3861 63.1316 70.1846 62.9513 69.9181C62.6519 69.7248 62.4048 69.5897 62.2098 69.5127C62.0459 69.433 61.8793 69.3222 61.71 69.1802C61.3522 68.6784 60.9477 68.1807 60.4964 67.687C60.0764 67.1907 59.7286 66.6252 59.4532 65.9906C59.38 65.8716 59.3224 65.7512 59.2803 65.6294C59.2666 65.4737 59.2374 65.3194 59.1926 65.1665C59.1084 64.923 59.027 64.7105 58.9483 64.5292C58.8696 64.3479 58.8335 64.1158 58.84 63.8329C58.8236 63.6461 58.8369 63.441 58.88 63.2177C58.9231 62.9943 58.9649 62.7553 59.0052 62.5008C59.0942 62.0852 59.2001 61.6837 59.3229 61.2965C59.4768 60.9065 59.5813 60.4895 59.6364 60.0455C59.6997 59.6948 59.7657 59.3753 59.8344 59.087C59.9032 58.7986 59.9848 58.4777 60.0792 58.1243C60.1278 57.9632 60.1466 57.8204 60.1356 57.6959C60.1531 57.5375 60.2369 57.4203 60.3871 57.3444C60.4569 56.7108 60.6072 56.1016 60.8381 55.5166C61.0663 54.9005 61.2972 54.3155 61.5308 53.7617C61.8158 53.0778 62.0682 52.3812 62.2882 51.6717C62.5393 50.9595 62.8073 50.2614 63.0922 49.5776C63.0905 49.2013 63.1877 48.879 63.3837 48.6109C63.3847 48.2657 63.4805 47.9279 63.671 47.5974C63.8588 47.2358 63.9844 46.8797 64.0477 46.5291C63.697 46.4658 63.3079 46.5 62.8803 46.6317C62.4811 46.7295 62.1286 46.8233 61.8227 46.9129C61.2651 46.9933 60.6737 47.0453 60.0483 47.0689C59.8277 47.0569 59.607 47.045 59.3864 47.033C59.1941 46.9872 59.0046 46.9725 58.8178 46.9889C58.5404 47.0446 58.3211 47.0482 58.16 46.9997C58.0273 46.9172 57.8858 46.914 57.7357 46.9899C57.3009 46.6831 56.9846 46.4756 56.7869 46.3675C56.5891 46.2594 56.4083 46.1655 56.2445 46.0858C56.0468 45.9777 55.8802 45.8668 55.7447 45.7533C55.5754 45.6113 55.4317 45.4044 55.3137 45.1324C55.3055 45.039 55.3453 44.9571 55.4332 44.8866C55.5211 44.8161 55.5935 44.747 55.6503 44.6793C55.8938 44.5951 56.1726 44.5549 56.4867 44.5587C56.798 44.5313 57.0415 44.4472 57.2174 44.3062C57.7209 44.3247 58.1696 44.2539 58.5633 44.0938C58.9882 43.931 59.4355 43.8446 59.9051 43.8347C59.9985 43.8264 60.0933 43.8338 60.1894 43.8567C60.2855 43.8796 60.3803 43.887 60.4737 43.8788C60.6321 43.8962 60.7566 43.8853 60.8473 43.8459C60.969 43.8039 61.1064 43.7604 61.2593 43.7156C61.4433 43.668 61.6457 43.6503 61.8663 43.6622C62.087 43.6742 62.3049 43.655 62.5201 43.6048C62.922 43.538 63.4086 43.5423 63.9799 43.6176C64.5796 43.659 65.0905 43.5827 65.5126 43.3887C65.63 42.9392 65.7629 42.4883 65.9113 42.0361C66.0882 41.55 66.2197 41.0835 66.3059 40.6368C66.414 40.439 66.5207 40.2258 66.6261 39.9969C66.7287 39.7369 66.8016 39.4952 66.8447 39.2718C67.0041 38.9441 67.1223 38.6828 67.1993 38.4878C67.3074 38.2901 67.431 38.091 67.5703 37.8905C67.7498 37.4355 67.8685 37.0016 67.9264 36.5887C68.0126 36.1419 68.1272 35.6613 68.2701 35.1468C68.6365 34.6754 68.9947 34.1106 69.3446 33.4524C69.5653 33.4644 69.731 33.3871 69.8419 33.2205C69.9838 33.0511 70.2031 33.0475 70.4997 33.2097C70.5079 33.3031 70.5472 33.3937 70.6177 33.4817C70.7166 33.5357 70.7417 33.6433 70.6931 33.8044C70.8625 33.9464 70.9993 34.0755 71.1036 34.1918C71.208 34.3081 71.2981 34.4414 71.3741 34.5915C71.4582 34.8351 71.4531 35.1336 71.3587 35.487C71.2927 35.8065 71.3498 36.0995 71.5301 36.366C71.606 36.5161 71.6353 36.6704 71.6178 36.8288C71.5976 36.9561 71.6242 37.0792 71.6974 37.1982C71.7733 37.3484 71.8648 37.4972 71.9719 37.6447C72.1101 37.7894 72.1901 37.9862 72.212 38.2353C72.2203 38.3287 72.2001 38.4559 72.1515 38.6171C72.1313 38.7443 72.0969 38.8885 72.0484 39.0496C71.9649 39.5275 71.9002 39.8626 71.8544 40.0548C71.8086 40.2471 71.7641 40.4549 71.721 40.6783C71.525 40.9465 71.4311 41.1273 71.4393 41.2207C71.4448 41.2829 71.4347 41.3466 71.409 41.4116C71.332 41.6066 71.2436 41.8496 71.1437 42.1407C71.0722 42.398 70.9966 42.6085 70.9169 42.7724ZM95.1573 53.0169C95.3157 53.0343 95.4146 53.0884 95.4539 53.179C95.5244 53.2669 95.6219 53.3054 95.7464 53.2945C95.7912 53.4474 95.7866 53.5733 95.7325 53.6721C95.7096 53.7683 95.6711 53.8658 95.6171 53.9646C95.5603 54.0324 95.5049 54.1157 95.4508 54.2145C95.4252 54.2795 95.4334 54.3729 95.4755 54.4947C95.2117 54.7061 94.8802 54.8607 94.481 54.9586C94.0791 55.0253 93.7814 55.2083 93.5882 55.5076C93.0808 55.8032 92.52 56.025 91.9056 56.1732C91.3196 56.2874 90.7052 56.4356 90.0624 56.6176C89.7703 56.8628 89.5633 57.0065 89.4416 57.0486C89.3509 57.0879 89.2461 57.1442 89.127 57.2174C88.8048 57.1203 88.4724 57.0867 88.13 57.1168C87.7876 57.147 87.441 57.1304 87.0904 57.0671C86.9091 57.1458 86.725 57.1933 86.5383 57.2097C86.3826 57.2234 86.2141 57.2696 86.0328 57.3483C85.9302 57.6083 85.8926 57.8939 85.92 58.2052C85.9473 58.5165 85.9253 58.8008 85.8538 59.058L85.6229 59.643C85.6054 59.8014 85.588 59.9598 85.5705 60.1182C85.5815 60.2427 85.5627 60.3855 85.5141 60.5466C85.46 60.6455 85.3918 60.7613 85.3093 60.894C85.258 61.024 85.2392 61.1668 85.2529 61.3225C85.0569 61.5907 84.9272 61.9001 84.864 62.2507C84.7979 62.5703 84.65 62.8499 84.4201 63.0897C84.3541 63.4092 84.2203 63.672 84.0188 63.8779C83.8485 64.0811 83.6809 64.3154 83.516 64.5809C83.2146 65.0779 82.9389 65.51 82.6888 65.8771C82.4699 66.2414 82.1535 66.5672 81.7395 66.8546C81.6058 67.1173 81.4341 67.3049 81.2244 67.4175C81.054 67.6207 80.9432 67.7873 80.8919 67.9173C80.6254 68.0976 80.3305 68.3117 80.0072 68.5597C79.6839 68.8077 79.3396 68.9949 78.9743 69.1211C78.456 69.2921 77.941 69.3217 77.4293 69.2099C76.9175 69.098 76.4314 68.9212 75.9709 68.6793C75.6935 68.7351 75.4546 68.6933 75.2541 68.5541C75.0875 68.4433 74.8769 68.3677 74.6224 68.3273C74.2526 68.0461 73.8544 67.7988 73.4278 67.5853C73.0013 67.3719 72.6754 67.0554 72.4503 66.636C72.358 66.2991 72.2656 65.9621 72.1732 65.6252C72.0497 65.291 71.9445 64.9865 71.8576 64.7118C71.7708 64.4371 71.7448 64.1414 71.7796 63.8246C71.7834 63.5106 71.756 63.1993 71.6975 62.8907C71.6674 62.5483 71.6428 62.2681 71.6236 62.0502C71.5706 61.8039 71.6069 61.5027 71.7324 61.1466C71.8836 60.7255 71.9794 60.3877 72.0198 60.1331C72.0574 59.8475 72.0991 59.6086 72.145 59.4163C72.2247 59.2524 72.303 59.073 72.38 58.878C72.4569 58.683 72.5508 58.5022 72.6617 58.3356C72.8238 58.0391 73.0171 57.7397 73.2415 57.4377C73.4659 57.1356 73.6917 56.8491 73.9188 56.5782C74.0837 56.3127 74.2371 56.0953 74.3791 55.926C74.6063 55.655 74.8503 55.3983 75.1113 55.1558C75.3724 54.9132 75.6306 54.6395 75.8862 54.3347C75.9402 54.2359 76.0112 54.1512 76.0991 54.0807C76.187 54.0103 76.2749 53.9398 76.3629 53.8693C76.6577 53.6552 76.9242 53.4749 77.1623 53.3285C77.4315 53.1793 77.7305 53.0119 78.0593 52.8261C78.2974 52.6797 78.524 52.5814 78.7392 52.5311C78.9827 52.4469 79.2574 52.36 79.5632 52.2704C79.7812 52.2512 79.9679 52.2348 80.1236 52.2211C80.2792 52.2074 80.4321 52.1626 80.5823 52.0867C80.467 51.8459 80.5609 51.6651 80.864 51.5443C81.1671 51.4235 81.3979 51.3719 81.5562 51.3893C81.8675 51.362 82.1234 51.4179 82.3239 51.5571C82.5216 51.6652 82.7065 51.8058 82.8786 51.9789C83.2429 52.1978 83.6141 52.4946 83.9921 52.8692C84.0598 52.926 84.1417 52.9658 84.2379 52.9887C84.334 53.0117 84.4159 53.0515 84.4837 53.1083C84.6219 53.253 84.7147 53.4174 84.7623 53.6014C84.841 53.7827 84.965 53.9444 85.1343 54.0863C85.2332 54.1404 85.3334 54.21 85.435 54.2952C85.5366 54.3803 85.6098 54.4994 85.6546 54.6523C85.8158 54.7009 85.9613 54.7508 86.0913 54.8021C86.2497 54.8196 86.4081 54.837 86.5665 54.8545C86.7276 54.903 86.8846 54.9049 87.0375 54.8601C87.2216 54.8126 87.4239 54.7948 87.6446 54.8067C87.803 54.8242 87.9471 54.8586 88.0771 54.9099C88.2044 54.9301 88.3458 54.9333 88.5015 54.9196C88.7478 54.8666 88.9914 54.7824 89.2322 54.6672C89.5041 54.5491 89.8141 54.5062 90.162 54.5384C90.6399 54.6218 91.1183 54.5327 91.5972 54.271C92.1073 54.0066 92.6241 53.82 93.1479 53.7112C93.2724 53.7002 93.3814 53.6906 93.4747 53.6824C93.5654 53.6431 93.673 53.6179 93.7975 53.607C93.9422 53.4688 94.1363 53.3576 94.3799 53.2735C94.6235 53.1893 94.8826 53.1038 95.1573 53.0169ZM81.9257 55.5919C81.5898 55.3391 81.388 55.1843 81.3202 55.1275C81.2809 55.0368 81.2287 54.9787 81.1637 54.953C81.0283 54.8395 80.8658 54.7753 80.6762 54.7606C80.4867 54.7459 80.3128 54.7298 80.1544 54.7124C79.6481 54.6628 79.2333 54.762 78.9101 55.01C78.6152 55.2241 78.3203 55.4383 78.0254 55.6524C77.5547 56.0075 77.1531 56.435 76.8206 56.9348C76.7409 57.0986 76.647 57.2794 76.5389 57.4771C76.4619 57.6721 76.4019 57.8813 76.3588 58.1047C76.2562 58.3647 76.1677 58.6077 76.0935 58.8339C76.0165 59.0289 75.9592 59.2692 75.9216 59.5548C75.7933 59.8798 75.7232 60.1526 75.7112 60.3733C75.6965 60.5628 75.6804 60.7367 75.663 60.8951C75.6592 61.2092 75.6257 61.5415 75.5624 61.8921C75.5303 62.24 75.5252 62.5385 75.547 62.7875C75.5864 62.8782 75.644 62.9986 75.72 63.1488C75.7959 63.299 75.8678 63.4024 75.9355 63.4592C76.0114 63.6094 76.0887 63.7751 76.1674 63.9565C76.2772 64.135 76.3674 64.2683 76.4379 64.3562C76.6127 64.5604 76.8273 64.6827 77.0818 64.7231C77.3363 64.7634 77.6234 64.8166 77.9429 64.8826C78.3017 65.0393 78.542 65.0966 78.6638 65.0545C78.7856 65.0125 78.8776 64.9887 78.9399 64.9832C79.3391 64.8854 79.682 64.6827 79.9687 64.3751C80.2554 64.0676 80.5475 63.8223 80.8451 63.6393C81.0613 63.2439 81.2917 62.8315 81.5363 62.4021C81.8093 61.939 82.0511 61.4785 82.2619 61.0208C82.3443 60.8881 82.4098 60.7411 82.4584 60.58C82.507 60.4189 82.5569 60.2733 82.6082 60.1433C82.8042 59.8751 82.8853 59.7268 82.8514 59.6984C82.8487 59.6673 82.8602 59.6193 82.8858 59.5543C83.0627 59.0682 83.1246 58.7019 83.0716 58.4556C83.0185 58.2093 82.9966 57.9603 83.0059 57.7085C82.8201 57.3798 82.6472 57.0185 82.4871 56.6248C82.3581 56.2283 82.171 55.884 81.9257 55.5919Z" fill="black"/>
<path d="M113.205 63.9599C113.455 63.9767 113.61 64.0028 113.67 64.0382C113.73 64.0736 113.807 64.0944 113.9 64.1007C114.025 64.1091 114.201 64.0583 114.428 63.9483C114.687 63.8092 114.933 63.6535 115.164 63.4811C115.426 63.3108 115.657 63.1385 115.856 62.964C116.087 62.7916 116.268 62.6629 116.399 62.5777C116.684 62.5343 116.975 62.3973 117.272 62.1667C117.57 61.9362 117.854 61.6734 118.124 61.3785C118.395 61.0835 118.634 60.7864 118.842 60.4872C119.081 60.1901 119.301 59.9543 119.5 59.7798C120.299 59.0819 120.85 58.571 121.154 58.2469C121.489 57.9249 121.707 57.7047 121.809 57.5863C121.911 57.4679 121.961 57.4243 121.959 57.4555C121.99 57.4576 122.084 57.4639 122.24 57.4744C122.489 57.4912 122.652 57.6274 122.729 57.8832C122.839 58.1098 122.936 58.3043 123.019 58.4665C122.952 58.5246 122.915 58.6161 122.906 58.7408C122.898 58.8655 122.859 58.9725 122.791 59.0619C122.722 59.1512 122.622 59.2384 122.491 59.3236C122.36 59.4087 122.243 59.5105 122.142 59.6289L121.636 60.1586C121.237 60.5076 120.882 60.8908 120.572 61.3084C120.293 61.7282 120.014 62.1479 119.735 62.5676C119.459 62.9561 119.183 63.329 118.908 63.6864C118.636 64.0126 118.337 64.2587 118.013 64.4247C117.135 64.8981 116.427 65.4141 115.889 65.973C115.381 66.5339 114.819 66.9658 114.204 67.2689C114.141 67.2647 114.095 67.2615 114.064 67.2594C114.066 67.2283 114.051 67.2116 114.02 67.2095C113.895 67.2011 113.784 67.225 113.686 67.281C113.62 67.3392 113.54 67.3651 113.446 67.3588C113.203 67.2485 112.99 67.1558 112.807 67.0808C112.626 66.9747 112.432 66.8363 112.224 66.6657C112.048 66.4972 111.844 66.2643 111.614 65.9669C111.416 65.6404 111.18 65.2016 110.904 64.6505C110.765 64.3906 110.657 64.1328 110.58 63.877C110.505 63.5901 110.399 63.3011 110.262 63.01C110.045 62.5255 109.851 62.1366 109.683 61.8434C109.548 61.5211 109.506 60.9858 109.557 60.2375C109.578 59.9257 109.64 59.4601 109.745 58.8407C109.849 58.2214 109.945 57.7267 110.033 57.3567C109.5 57.822 109.007 58.3995 108.553 59.0894C108.133 59.7501 107.716 60.3641 107.302 60.9313C106.717 61.7062 106.12 62.4334 105.51 63.1127C104.934 63.7629 104.617 64.2897 104.558 64.6929C104.359 64.8674 104.172 65.0741 104 65.313C103.827 65.5519 103.671 65.7763 103.532 65.9862C103.425 66.167 103.336 66.3332 103.263 66.4849C103.223 66.6075 103.237 66.6397 103.304 66.5816C102.819 67.2693 102.146 67.7251 101.285 67.949C100.454 68.2062 99.6791 68.3106 98.962 68.2623C98.6835 68.2122 98.405 68.1621 98.1264 68.1121C97.8479 68.062 97.5903 67.935 97.3534 67.7311L96.6865 67.1694C96.2045 66.8864 95.8878 66.4735 95.7364 65.9309C95.585 65.3882 95.5303 64.8051 95.5724 64.1815C96.0116 63.2402 96.3043 62.3829 96.4503 61.6097C96.5673 60.8032 96.7902 60.0509 97.1192 59.3527C97.6334 58.2284 98.3107 57.2405 99.1511 56.3888C100.023 55.5392 100.92 54.7697 101.844 54.0802C102.767 53.3907 103.638 52.776 104.458 52.2361C105.308 51.6983 105.986 51.1645 106.492 50.6348C106.712 50.6183 106.968 50.5416 107.259 50.4046C107.55 50.2676 107.857 50.1317 108.179 49.9968C108.504 49.8307 108.826 49.6958 109.146 49.5921C109.498 49.4905 109.845 49.4512 110.188 49.4743C110.562 49.4995 110.839 49.5652 111.02 49.6714C111.232 49.7796 111.395 49.9159 111.509 50.0802C111.626 50.2133 111.694 50.3588 111.715 50.5168C111.767 50.6769 111.834 50.8381 111.917 51.0003C112.138 50.514 112.328 50.0101 112.489 49.4884C112.651 48.9356 112.856 48.4483 113.104 48.0265C113.356 47.0725 113.737 46.0646 114.247 45.0027C114.789 43.943 115.308 42.9757 115.805 42.1009C116.336 41.197 116.794 40.4448 117.179 39.8443C117.597 39.2148 117.841 38.8553 117.909 38.766C118.425 38.0804 118.982 37.4914 119.579 36.9992C120.209 36.4779 120.73 35.9492 121.142 35.4132C121.477 35.0912 121.801 34.6903 122.116 34.2103C122.463 33.7012 122.735 33.3907 122.93 33.2786C123.389 33.4348 123.72 33.645 123.921 33.9091C124.125 34.1421 124.249 34.3853 124.295 34.639C124.34 34.8926 124.339 35.1431 124.291 35.3904C124.243 35.6378 124.215 35.8238 124.207 35.9485C124.173 36.4474 124.093 36.9431 123.965 37.4357L122.152 40.6491C121.661 41.4304 121.184 42.2283 120.722 43.0428C120.291 43.8595 119.875 44.6928 119.473 45.5427C118.805 46.6252 118.1 47.5643 117.357 48.3599C116.645 49.1577 115.977 50.0209 115.35 50.9497C115.202 51.2842 115.009 51.6001 114.77 51.8972C114.564 52.1652 114.357 52.4488 114.148 52.748L113.171 54.7023C112.967 54.9392 112.858 55.1667 112.843 55.385C112.895 55.545 112.918 55.6719 112.912 55.7654C112.905 55.8589 112.9 55.9369 112.896 55.9992C112.877 56.2799 112.842 56.5594 112.792 56.8379C112.773 57.1186 112.754 57.4148 112.733 57.7266C112.678 58.5372 112.639 59.3489 112.615 60.1617C112.594 60.9433 112.59 61.6947 112.605 62.4161C112.534 62.5366 112.497 62.6124 112.495 62.6436C112.481 62.8619 112.574 63.1031 112.775 63.3672C113.01 63.6022 113.153 63.7998 113.205 63.9599ZM109.481 52.2926L108.261 52.9621C108.006 53.0389 107.678 53.2517 107.279 53.6007C106.881 53.9184 106.534 54.1926 106.237 54.4231L105.195 55.2456C104.949 55.6362 104.63 55.9592 104.237 56.2146C103.844 56.47 103.511 56.7608 103.238 57.087C102.866 57.5004 102.488 57.9917 102.106 58.561C101.754 59.1324 101.58 59.6219 101.584 60.0293C101.39 60.58 101.186 61.0517 100.972 61.4445C100.757 61.8372 100.633 62.283 100.6 62.7819C100.572 63.1872 100.682 63.4139 100.93 63.4618C101.21 63.4807 101.413 63.4944 101.538 63.5028C101.929 63.2786 102.325 62.9764 102.726 62.5963C103.161 62.1871 103.565 61.7758 103.937 61.3623C104.343 60.9199 104.685 60.4888 104.964 60.0691C105.274 59.6515 105.503 59.2754 105.651 58.9408C106.033 58.3715 106.465 57.7742 106.946 57.1488C107.428 56.4923 107.953 55.9168 108.518 55.4225L109.867 53.5401C109.94 53.3884 110.011 53.2523 110.082 53.1318C110.153 53.0113 110.194 52.8731 110.204 52.7172C110.219 52.4989 110.169 52.3076 110.055 52.1433C109.93 52.1349 109.819 52.1588 109.721 52.2148C109.626 52.2397 109.545 52.2656 109.481 52.2926ZM141.906 56.3562C142.06 56.3979 142.149 56.4665 142.174 56.5622C142.23 56.6599 142.321 56.713 142.445 56.7214C142.466 56.8794 142.442 57.003 142.373 57.0924C142.336 57.1838 142.283 57.2742 142.214 57.3635C142.148 57.4217 142.08 57.4955 142.011 57.5848C141.976 57.645 141.97 57.7386 141.992 57.8654C141.699 58.0336 141.348 58.1352 140.938 58.1702C140.531 58.1741 140.209 58.309 139.971 58.5749C139.425 58.7886 138.836 58.9213 138.206 58.9728C137.61 58.9953 136.98 59.0468 136.317 59.1274C135.99 59.3246 135.764 59.4347 135.637 59.4574C135.541 59.4823 135.429 59.5217 135.3 59.5757C134.997 59.43 134.673 59.3456 134.33 59.3224C133.987 59.2993 133.648 59.2295 133.311 59.1128C133.12 59.1626 132.93 59.1812 132.743 59.1686C132.587 59.1581 132.414 59.1777 132.223 59.2274C132.081 59.4685 132 59.7449 131.979 60.0567C131.958 60.3685 131.892 60.6459 131.782 60.8891L131.463 61.4314C131.422 61.5852 131.38 61.739 131.338 61.8928C131.33 62.0175 131.289 62.1557 131.216 62.3074C131.148 62.3967 131.062 62.5006 130.961 62.619C130.89 62.7395 130.849 62.8778 130.839 63.0337C130.604 63.2684 130.428 63.5541 130.311 63.8908C130.197 64.1962 130.007 64.4497 129.743 64.6512C129.629 64.9567 129.456 65.1956 129.225 65.368C129.025 65.5424 128.824 65.7481 128.62 65.9849C128.245 66.4295 127.906 66.8138 127.602 67.1379C127.33 67.4641 126.967 67.7372 126.514 67.9572C126.341 68.1961 126.142 68.355 125.918 68.4339C125.718 68.6083 125.583 68.7558 125.512 68.8763C125.221 69.0133 124.896 69.1794 124.539 69.3746C124.181 69.5697 123.812 69.7015 123.432 69.7698C122.893 69.8588 122.38 69.8085 121.891 69.619C121.403 69.4295 120.95 69.1798 120.532 68.8698C120.25 68.882 120.02 68.8039 119.844 68.6354C119.696 68.5002 119.5 68.393 119.254 68.3139C118.932 67.979 118.577 67.6731 118.189 67.3964C117.8 67.1197 117.527 66.7567 117.369 66.3076C117.33 65.9604 117.291 65.6133 117.252 65.2661C117.181 64.9168 117.124 64.5998 117.081 64.315C117.037 64.0301 117.057 63.7339 117.141 63.4264C117.193 63.1167 117.214 62.8049 117.204 62.491C117.227 62.148 117.246 61.8674 117.26 61.6491C117.246 61.3976 117.328 61.1056 117.507 60.7731C117.722 60.3804 117.868 60.0614 117.948 59.8162C118.029 59.5398 118.107 59.3101 118.182 59.1272C118.286 58.9776 118.391 58.8125 118.497 58.6317C118.603 58.4509 118.724 58.2868 118.859 58.1393C119.065 57.8713 119.302 57.6054 119.571 57.3416C119.839 57.0777 120.106 56.8295 120.373 56.5969C120.576 56.3601 120.762 56.1689 120.928 56.0235C121.194 55.7909 121.475 55.5749 121.77 55.3756C122.066 55.1762 122.363 54.9457 122.663 54.684C122.731 54.5946 122.814 54.5219 122.912 54.4659C123.01 54.4098 123.108 54.3538 123.205 54.2977C123.53 54.1316 123.821 53.9947 124.079 53.8867C124.368 53.7809 124.689 53.6616 125.043 53.5288C125.3 53.4209 125.539 53.3587 125.76 53.3422C126.013 53.2967 126.298 53.2532 126.614 53.2119C126.832 53.2266 127.02 53.2392 127.175 53.2497C127.331 53.2602 127.489 53.2395 127.649 53.1877C127.573 52.9319 127.693 52.7678 128.011 52.6953C128.33 52.6227 128.566 52.6073 128.719 52.649C129.031 52.67 129.275 52.7647 129.452 52.9332C129.631 53.0705 129.792 53.238 129.935 53.4356C130.261 53.7081 130.582 54.0586 130.898 54.487C130.956 54.5536 131.031 54.6056 131.122 54.6431C131.213 54.6806 131.288 54.7326 131.346 54.7992C131.461 54.9635 131.527 55.1402 131.546 55.3294C131.595 55.5206 131.693 55.6995 131.838 55.8659C131.928 55.9345 132.016 56.0188 132.103 56.1186C132.19 56.2185 132.244 56.3474 132.265 56.5054C132.417 56.5782 132.553 56.6501 132.673 56.7208C132.827 56.7625 132.981 56.8042 133.135 56.8459C133.286 56.9187 133.441 56.9448 133.599 56.9241C133.788 56.9056 133.991 56.9192 134.207 56.9651C134.361 57.0068 134.498 57.063 134.619 57.1338C134.741 57.1733 134.881 57.1984 135.037 57.2089C135.288 57.1945 135.542 57.149 135.797 57.0722C136.084 56.9976 136.397 57.003 136.736 57.0885C137.195 57.2447 137.682 57.2305 138.195 57.0458C138.74 56.8633 139.279 56.7587 139.814 56.732C139.938 56.7404 140.048 56.7478 140.141 56.7541C140.237 56.7292 140.347 56.721 140.472 56.7294C140.636 56.6151 140.845 56.5353 141.099 56.4897C141.352 56.4442 141.621 56.3996 141.906 56.3562ZM128.436 56.8582C128.143 56.5566 127.967 56.3725 127.909 56.3059C127.884 56.2103 127.842 56.1448 127.781 56.1094C127.665 55.9763 127.515 55.8878 127.33 55.844C127.145 55.8003 126.975 55.7575 126.821 55.7158C126.329 55.5887 125.904 55.6227 125.546 55.8179C125.222 55.9839 124.897 56.15 124.573 56.3161C124.053 56.5943 123.59 56.9546 123.185 57.3971C123.081 57.5467 122.96 57.7108 122.823 57.8895C122.716 58.0703 122.625 58.2677 122.548 58.4817C122.406 58.7228 122.281 58.9492 122.173 59.1612C122.067 59.342 121.973 59.5706 121.892 59.847C121.715 60.1483 121.604 60.407 121.558 60.6232C121.514 60.8081 121.471 60.9775 121.43 61.1313C121.377 61.441 121.293 61.7642 121.176 62.1009C121.091 62.4396 121.04 62.7337 121.023 62.9832C121.048 63.0788 121.086 63.2067 121.138 63.3668C121.19 63.5269 121.245 63.6402 121.303 63.7068C121.355 63.8669 121.406 64.0425 121.455 64.2338C121.536 64.4272 121.605 64.5728 121.661 64.6705C121.802 64.8993 121.995 65.0532 122.241 65.1324C122.486 65.2115 122.761 65.3084 123.067 65.4229C123.397 65.6331 123.626 65.7268 123.752 65.704C123.879 65.6813 123.974 65.672 124.036 65.6762C124.446 65.6411 124.816 65.4938 125.147 65.2342C125.477 64.9746 125.804 64.7773 126.126 64.6424C126.401 64.2851 126.692 63.9132 127 63.5268C127.341 63.1112 127.651 62.6936 127.93 62.2739C128.032 62.1555 128.119 62.0205 128.192 61.8688C128.265 61.7171 128.337 61.581 128.408 61.4604C128.643 61.2257 128.746 61.0917 128.717 61.0584C128.719 61.0273 128.737 60.9815 128.773 60.9213C129.023 60.4683 129.14 60.116 129.126 59.8645C129.112 59.613 129.128 59.3635 129.176 59.1162C129.044 58.7627 128.928 58.3791 128.831 57.9654C128.765 57.5537 128.633 57.1847 128.436 56.8582Z" fill="black"/>
<path d="M152.112 100.104C153.193 99.8639 154.218 99.5258 155.187 99.0899C156.219 98.6583 157.337 98.3265 158.543 98.0945C160.114 98.0124 161.68 98.0239 163.239 98.1289C164.86 98.2382 166.369 98.1519 167.766 97.8702C169.28 97.7216 170.633 97.6248 171.826 97.5799C173.082 97.5392 174.221 97.8352 175.243 98.4678C175.334 98.9751 175.292 99.5987 175.117 100.339C174.946 101.016 174.75 101.598 174.53 102.084C174.305 102.633 174.119 103.059 173.974 103.362C173.828 103.666 173.582 104.056 173.237 104.534C172.908 104.763 172.553 104.927 172.17 105.026C171.85 105.13 171.528 105.265 171.203 105.431C170.651 105.268 170.054 105.291 169.414 105.498C169.243 105.236 168.842 105.146 168.21 105.229C167.341 105.108 166.522 105.178 165.753 105.439C165.046 105.705 164.291 105.748 163.489 105.569C162.982 105.66 162.414 105.716 161.787 105.736C161.225 105.698 160.598 105.719 159.903 105.797C159.209 105.876 158.571 106.052 157.988 106.326C157.406 106.6 156.776 106.651 156.099 106.48C155.392 106.746 154.656 106.978 153.891 107.177C153.121 107.439 152.321 107.698 151.489 107.955C150.778 108.283 150.36 108.443 150.235 108.435C150.173 108.43 150.077 108.455 149.948 108.509C149.304 108.779 148.824 108.934 148.508 108.976C148.254 109.021 147.967 109.096 147.647 109.2C147.148 109.166 146.687 109.041 146.263 108.825C145.897 108.675 145.471 108.489 144.985 108.269C144.685 108.061 144.482 107.828 144.374 107.57C144.262 107.374 144.094 107.081 143.869 106.69C143.172 105.891 142.694 105.076 142.437 104.245C142.321 104.111 142.173 103.976 141.994 103.839C141.816 103.702 141.637 103.564 141.458 103.427C141.218 102.346 141.31 101.444 141.735 100.721C142.101 99.931 142.467 99.1414 142.834 98.3517C143.271 97.4415 143.648 96.496 143.965 95.5151C144.285 94.4718 144.781 93.6281 145.451 92.9842C145.675 92.4356 146.063 91.8039 146.612 91.0892C147.028 90.4908 147.353 89.855 147.586 89.1816C147.882 88.5125 148.238 87.8787 148.654 87.2803C148.862 86.9812 149.068 86.7131 149.272 86.4763C149.542 86.1813 149.779 85.9154 149.983 85.6786C150.066 85.371 150.175 85.159 150.308 85.0427C150.503 84.9306 150.643 84.7208 150.726 84.4132C151.387 83.8939 151.901 83.2395 152.268 82.4498C152.697 81.6644 153.213 80.9788 153.816 80.393C154.361 79.7406 154.785 79.0175 155.089 78.2237C155.456 77.434 155.912 76.713 156.457 76.0607C156.748 75.4539 156.967 74.9988 157.112 74.6954C157.321 74.3962 157.531 74.0659 157.743 73.7043C158.03 73.1599 158.293 72.5198 158.53 71.7841C158.83 71.0526 159.153 70.4479 159.498 69.9701C159.66 69.4173 159.879 68.9622 160.154 68.6048C160.428 68.2475 160.651 67.73 160.822 67.0525C161.163 66.637 161.417 66.1216 161.584 65.5064C161.813 64.8955 162.069 64.3489 162.352 63.8669C162.369 63.6174 162.446 63.4034 162.583 63.2247C162.787 62.9879 162.833 62.7717 162.721 62.5762C163.054 62.2855 163.235 61.9218 163.264 61.4853C163.356 61.053 163.568 60.6914 163.901 60.4006C163.868 59.9599 164.056 59.5027 164.463 59.0291C164.547 58.7215 164.657 58.4784 164.794 58.2997C164.998 58.0628 165.138 57.853 165.213 57.6701C165.845 56.6478 166.239 55.9226 166.393 55.4945C166.613 55.0083 166.83 54.5843 167.042 54.2228C167.175 54.1065 167.308 53.9902 167.442 53.8738C167.579 53.6952 167.687 53.4832 167.766 53.238C167.912 52.9346 168.06 52.6 168.21 52.2343C168.36 51.8685 168.507 51.534 168.653 51.2306C168.799 50.9272 168.911 50.6529 168.991 50.4076C169.07 50.1624 169.178 49.9504 169.315 49.7718C169.794 49.1776 170.004 48.8472 169.946 48.7807C169.95 48.7183 169.985 48.658 170.052 48.5999C170.198 48.2965 170.341 48.0243 170.483 47.7832C170.624 47.5422 170.766 47.3012 170.907 47.0601C171.707 45.4227 172.36 44.0886 172.868 43.0579C173.439 42.0314 174.071 41.0091 174.766 39.991C174.8 39.4922 174.771 38.9891 174.68 38.4818C174.593 37.9122 174.689 37.4175 174.968 36.9978C175.484 36.782 175.97 36.5329 176.428 36.2505C176.952 35.9099 177.499 35.6962 178.068 35.6093C178.322 35.5637 178.532 35.7032 178.698 36.0276C178.93 36.2938 179.136 36.4956 179.315 36.6329C179.842 37.1696 180.299 37.8268 180.685 38.6045C181.138 39.324 181.464 40.0664 181.663 40.8315C181.754 41.3387 181.745 41.9332 181.637 42.615C181.595 43.2386 181.465 43.7623 181.249 44.1862C181.016 44.8596 180.73 45.3728 180.393 45.726C180.464 46.545 180.386 47.2289 180.161 47.7775C179.999 48.3303 179.807 48.8499 179.586 49.3361C178.921 49.9177 178.372 50.6324 177.939 51.4802C177.535 51.8915 177.19 52.3694 176.902 52.9138C176.619 53.3959 176.305 53.8759 175.96 54.3537C175.677 54.8358 175.363 55.3158 175.017 55.7936C174.672 56.2715 174.384 56.8159 174.155 57.4269C173.548 58.075 173.169 58.582 173.019 58.9477C172.936 59.2553 172.73 59.5233 172.401 59.7518C171.544 61.3227 170.786 62.8064 170.128 64.2028C169.475 65.5369 168.761 66.8356 167.987 68.0989C168.028 68.4149 167.949 68.6601 167.749 68.8346C167.554 68.9467 167.477 69.1608 167.518 69.4768C166.819 70.5572 166.265 71.8041 165.857 73.2173C165.51 74.6348 164.957 75.8816 164.195 76.9579C163.512 78.7284 162.684 80.3326 161.71 81.7704C160.803 83.1501 159.949 84.6586 159.15 86.2961C158.83 86.3998 158.586 86.7593 158.419 87.3745C157.662 88.3883 157.021 89.5353 156.496 90.8155C156.034 92.0998 155.453 93.2822 154.754 94.3626C154.379 95.277 153.909 96.2163 153.343 97.1804C152.777 98.1445 152.366 99.1192 152.112 100.104ZM205.501 62.1695C205.613 62.365 205.663 62.5562 205.651 62.7433C205.638 62.9304 205.721 63.0926 205.9 63.2299C205.737 63.7827 205.572 64.3667 205.406 64.9819C205.306 65.539 205.237 66.0981 205.199 66.6593C205.182 66.9087 205.23 67.1312 205.342 67.3267C205.516 67.5264 205.597 67.7197 205.585 67.9068C205.222 68.6341 204.944 69.0538 204.748 69.1659C204.615 69.2822 204.542 69.4339 204.529 69.621C204.209 69.7247 203.947 69.895 203.743 70.1318C203.602 70.3729 203.344 70.4808 202.97 70.4556C202.833 70.6343 202.666 70.7796 202.471 70.8918C202.342 70.9457 202.238 71.0953 202.159 71.3405C201.131 71.7098 200.011 71.6031 198.797 71.0202C198.523 70.4379 198.114 70.0032 197.57 69.716C196.839 68.4765 196.902 67.0714 197.76 65.5004C197.906 65.197 198.051 64.8937 198.197 64.5903C198.409 64.2287 198.582 63.9898 198.715 63.8735C199.435 63.4208 199.955 63.1426 200.275 63.0389C200.533 62.931 200.793 62.7919 201.055 62.6216C201.379 62.4556 201.732 62.3228 202.115 62.2233C202.244 62.1693 202.402 62.1486 202.589 62.1612C202.838 62.178 203.092 62.1325 203.35 62.0246C203.604 61.979 203.826 61.9313 204.017 61.8816C204.209 61.8318 204.398 61.8133 204.585 61.8259L205.501 62.1695ZM188.218 102.537C188.796 102.325 189.488 102.278 190.294 102.395C191.101 102.512 191.764 102.431 192.284 102.153C192.546 101.983 192.777 101.81 192.977 101.636C193.176 101.461 193.399 101.414 193.644 101.493C194.667 101.186 195.534 100.868 196.245 100.54C196.956 100.212 197.723 99.9822 198.547 99.8498C198.738 99.8 198.965 99.69 199.227 99.5197C199.551 99.3536 199.78 99.2124 199.913 99.0961C200.932 98.8515 201.67 98.5881 202.127 98.3057C202.585 98.0233 203.011 97.7388 203.406 97.4522C203.864 97.1698 204.29 96.8853 204.685 96.5987C205.147 96.254 205.706 95.8532 206.364 95.3963C207.27 94.9563 208.017 94.5681 208.603 94.2317C209.252 93.8996 209.938 93.476 210.662 92.961C210.808 92.6576 210.978 92.4498 211.174 92.3377C211.436 92.1675 211.638 91.9618 211.779 91.7208C212.902 91.7964 213.496 92.2749 213.562 93.1563C213.204 93.8213 212.729 94.3531 212.139 94.7518C211.611 95.1547 211.109 95.6221 210.635 96.1539C210.115 96.4321 209.691 96.6854 209.362 96.9138C209.034 97.1422 208.697 97.4954 208.351 97.9733C208.289 97.9691 208.091 98.1123 207.758 98.4031C207.43 98.6316 207.234 98.7437 207.172 98.7395C206.768 99.1508 206.469 99.4125 206.273 99.5246C206.14 99.6409 206.009 99.7261 205.88 99.78C205.818 99.7758 205.689 99.8298 205.494 99.9419C205.361 100.058 205.063 100.289 204.601 100.633C204.119 101.29 203.52 101.813 202.804 102.204C201.411 103.363 199.903 104.357 198.281 105.188C196.726 105.96 195.295 106.741 193.989 107.53C193.731 107.637 193.5 107.81 193.296 108.047C193.097 108.221 192.866 108.393 192.604 108.564C192.275 108.792 191.76 109.008 191.057 109.211C190.416 109.419 189.84 109.599 189.329 109.753C188.938 109.977 188.582 110.141 188.262 110.245C186.886 110.214 185.841 109.925 185.126 109.375C184.345 108.884 183.744 108.499 183.325 108.221C182.905 107.942 182.558 107.511 182.284 106.929C181.619 106.571 181.22 105.98 181.088 105.157C181.022 104.276 180.923 103.423 180.79 102.6C180.749 102.284 180.71 101.937 180.673 101.558C180.64 101.118 180.669 100.681 180.761 100.249C180.932 99.5714 181.074 98.8606 181.186 98.1165C181.303 97.31 181.505 96.6346 181.793 96.0902C182.151 95.4252 182.353 94.7498 182.399 94.0638C182.508 93.3821 182.741 92.7087 183.099 92.0438C183.515 91.4454 183.694 91.113 183.636 91.0464C183.64 90.984 183.678 90.8926 183.748 90.7721C183.886 90.5934 184.023 90.4147 184.16 90.2361C184.36 90.0616 184.531 89.8538 184.672 89.6128L185.328 88.2475C185.607 87.8278 185.917 87.4102 186.258 86.9947C186.599 86.5792 186.884 86.066 187.113 85.455C187.263 85.0892 187.442 84.7568 187.65 84.4576C187.921 84.1626 188.193 83.8364 188.468 83.4791C188.68 83.1175 188.861 82.7539 189.011 82.3881C189.165 81.96 189.351 81.534 189.567 81.1101C189.788 80.6238 190.04 80.1396 190.323 79.6576C190.668 79.1797 191.014 78.7019 191.359 78.224C191.642 77.7419 191.885 77.3825 192.089 77.1456C192.293 76.9088 192.678 76.7781 193.243 76.7536C193.497 76.708 193.775 76.7581 194.079 76.9038C194.386 76.9872 194.7 76.977 195.021 76.8733C195.856 76.5537 196.43 76.4045 196.742 76.4255C197.054 76.4465 197.278 76.3677 197.416 76.189C198.097 76.2975 198.582 76.5494 198.868 76.9446C199.155 77.3397 199.504 77.7391 199.915 78.1426C199.419 79.9258 198.888 81.2995 198.322 82.2636C197.822 83.1696 197.256 84.1337 196.624 85.156C196.278 85.6339 195.929 86.1741 195.575 86.7767C195.221 87.3793 194.903 87.9216 194.62 88.4037C194.262 89.0686 193.877 89.6691 193.465 90.2051C193.119 90.683 192.799 91.2565 192.503 91.9256C192.357 92.229 192.18 92.5303 191.972 92.8295C191.831 93.0705 191.687 93.3427 191.542 93.6461C191.387 94.0742 191.173 94.467 190.898 94.8243C190.69 95.1235 190.482 95.4227 190.274 95.7219C190.062 96.0834 189.85 96.445 189.637 96.8065C189.425 97.1681 189.242 97.5629 189.088 97.991C188.726 98.7183 188.507 99.1734 188.432 99.3563C188.361 99.4768 188.29 99.5973 188.22 99.7178C188.049 100.395 187.824 100.944 187.545 101.364C187.266 101.783 187.339 102.102 187.763 102.318L188.218 102.537ZM216.572 95.8961C216.68 96.1539 216.594 96.4927 216.316 96.9124C216.099 97.3363 215.918 97.7 215.772 98.0034C215.818 98.257 215.865 98.4795 215.915 98.6707C215.969 98.7997 215.925 98.9846 215.784 99.2257C216.199 99.5669 216.455 99.9599 216.55 100.405C216.65 100.787 216.841 101.207 217.123 101.665C217.41 102.06 217.7 102.393 217.995 102.663C218.353 102.938 218.677 103.242 218.967 103.574C219.292 103.408 219.548 103.332 219.735 103.344C219.922 103.357 220.175 103.311 220.496 103.208C221.107 102.497 221.603 101.653 221.982 100.677C222.061 100.432 222.142 100.155 222.225 99.8475C222.309 99.5399 222.359 99.2614 222.376 99.012C222.372 98.1348 222.179 97.2761 221.797 96.436C221.416 95.596 221.129 94.731 220.939 93.8412C220.723 93.3255 220.667 92.758 220.771 92.1386C220.938 91.5234 220.976 90.9622 220.885 90.4549C220.844 90.1389 220.767 89.8832 220.655 89.6877C220.543 89.4922 220.433 89.2656 220.325 89.0078C220.234 88.5005 220.209 87.9351 220.251 87.3115C220.355 86.6921 220.266 86.1536 219.984 85.6961C219.718 85.9287 219.281 86.3691 218.673 87.0173C218.066 87.6654 217.423 88.3738 216.745 89.1425C216.067 89.9111 215.424 90.6195 214.817 91.2676C214.271 91.92 213.866 92.3625 213.6 92.5951C213.258 93.0106 212.888 93.3928 212.489 93.7418C212.094 94.0284 211.725 94.3794 211.384 94.7949C211.114 95.0899 210.642 95.5906 209.968 96.2969C209.36 96.945 208.717 97.6534 208.039 98.422C207.361 99.1907 206.747 99.9324 206.198 100.647C205.59 101.295 205.185 101.738 204.981 101.975C204.844 102.153 204.5 102.6 203.951 103.315C203.339 104.025 202.692 104.796 202.01 105.627C201.265 106.454 200.618 107.224 200.069 107.939C199.457 108.65 199.081 109.125 198.939 109.366C198.523 109.965 198.02 110.463 197.429 110.862C196.772 111.319 196.038 111.52 195.227 111.465C195.169 111.399 195.119 111.208 195.078 110.892C195.032 110.638 195.02 110.355 195.041 110.043C195 109.727 194.958 109.411 194.917 109.095C194.809 108.838 194.728 108.644 194.674 108.515C194.886 108.154 195.068 107.79 195.218 107.424C195.305 107.054 195.578 106.728 196.035 106.446C196.189 106.018 196.61 105.357 197.296 104.464C197.987 103.508 198.742 102.525 199.562 101.516C200.382 100.506 201.166 99.5564 201.915 98.6672C202.602 97.7739 203.082 97.1485 203.357 96.7911C203.623 96.5585 204.06 96.1181 204.667 95.47C205.275 94.8219 205.884 94.1425 206.496 93.432C207.112 92.6592 207.692 91.9466 208.237 91.2943C208.845 90.6461 209.284 90.1745 209.554 89.8796C209.779 89.3309 210.235 88.6099 210.921 87.7166C211.612 86.7608 212.365 85.8093 213.181 84.862C214.001 83.8523 214.785 82.9029 215.534 82.0137C216.345 81.1287 216.957 80.4182 217.369 79.8822C217.714 79.4043 217.993 78.9846 218.205 78.6231C218.48 78.2657 218.757 77.8772 219.036 77.4575C219.169 77.3412 219.302 77.2249 219.435 77.1085C219.572 76.9299 219.676 76.7803 219.747 76.6598C219.905 76.1693 219.866 75.8221 219.629 75.6182C219.397 75.352 219.326 75.0027 219.418 74.5704C219.984 73.6063 220.558 72.9872 221.14 72.7132C221.789 72.3811 222.386 71.8889 222.931 71.2365C223.26 71.0081 223.553 70.8399 223.811 70.732C224.131 70.6283 224.458 70.431 224.79 70.1402C225.057 69.9076 225.377 69.8039 225.751 69.8291C226.129 69.792 226.47 69.8462 226.774 69.992C227.144 70.0795 227.447 70.2252 227.684 70.4291C227.987 70.5748 228.166 70.7122 228.22 70.8411C228.27 71.0324 228.253 71.2818 228.169 71.5894C228.086 71.897 228.003 72.2046 227.919 72.5122C227.757 73.065 227.596 73.5866 227.438 74.0771C227.284 74.5052 227.126 74.9957 226.963 75.5485C226.792 76.2261 226.623 76.8724 226.457 77.4876C226.352 78.107 226.531 78.7141 226.992 79.3089C226.908 79.6165 226.883 79.9907 226.916 80.4314C227.011 80.8763 227.109 81.29 227.208 81.6726C227.199 83.6765 227.407 85.695 227.834 87.7283C228.327 89.7035 228.862 91.5248 229.439 93.1923C229.418 93.5041 229.428 93.818 229.47 94.134C229.573 94.4542 229.677 94.7744 229.781 95.0946C229.833 97.1027 229.512 99.0855 228.816 101.043C228.125 102.939 227.467 104.805 226.842 106.642C226.425 107.24 226.065 107.936 225.761 108.73C225.611 109.096 225.466 109.399 225.324 109.64C225.183 109.881 224.977 110.149 224.706 110.444C224.361 110.922 224.042 111.465 223.751 112.071C223.46 112.678 222.927 113.144 222.154 113.467C221.709 113.563 221.272 113.533 220.844 113.379C220.478 113.229 220.104 113.204 219.722 113.303C219.406 113.345 219.121 113.388 218.867 113.434C218.609 113.542 218.356 113.587 218.106 113.57C217.287 113.641 216.607 113.501 216.067 113.151C215.585 112.868 214.974 112.639 214.234 112.464C214.247 112.277 214.164 112.115 213.985 111.977C213.802 111.902 213.653 111.798 213.536 111.665C213.354 110.651 213.153 109.917 212.933 109.463C212.713 109.01 212.557 108.53 212.466 108.023C212.325 107.324 212.276 106.663 212.318 106.039C212.364 105.353 212.255 104.657 211.989 103.95C211.773 103.434 211.672 103.083 211.684 102.896C211.759 102.713 211.803 102.528 211.815 102.341C211.87 101.53 211.867 100.653 211.805 99.7093C211.81 98.7074 212.27 97.924 213.185 97.3592C213.513 97.1308 213.753 96.8337 213.902 96.468C214.119 96.0441 214.425 95.6888 214.82 95.4022C214.953 95.2859 215.144 95.2362 215.394 95.253C215.706 95.274 215.922 95.3198 216.042 95.3906L216.572 95.8961ZM266.922 61.2332C267.724 61.4125 268.404 61.5522 268.961 61.6524C269.518 61.7526 270.012 61.8485 270.445 61.9403C270.944 61.9739 271.443 62.0075 271.941 62.0411C272.444 62.0124 273.074 61.9608 273.831 61.8865C275.216 61.7919 276.442 61.7179 277.511 61.6646C278.646 61.5531 279.872 61.4791 281.19 61.4426C281.568 61.4055 281.943 61.4307 282.312 61.5183C282.745 61.61 283.148 61.6685 283.522 61.6937C284.333 61.7483 285.114 61.7697 285.867 61.7577C286.682 61.75 287.434 61.738 288.124 61.7219C288.378 61.6763 288.601 61.6286 288.792 61.5789C288.983 61.5291 289.17 61.5417 289.353 61.6167C289.914 61.6545 290.475 61.6923 291.037 61.7301C291.602 61.7056 292.088 61.9263 292.496 62.3922C292.641 63.0284 292.68 63.3755 292.613 63.4337C292.547 63.4918 292.478 63.5812 292.407 63.7017C292.29 64.5082 292.138 64.9051 291.951 64.8925C291.827 64.8841 291.76 64.9422 291.752 65.067C291.244 65.1581 290.799 65.2534 290.417 65.3529C290.101 65.3943 289.839 65.5645 289.631 65.8637C288.554 66.0417 287.552 66.0369 286.625 65.8492C285.764 65.6033 284.852 65.6671 283.887 66.0406C283.438 66.1982 282.953 66.4162 282.434 66.6944C281.98 66.9144 281.419 66.8766 280.75 66.5809C280.126 66.5389 279.407 66.5218 278.592 66.5295C277.777 66.5373 276.994 66.5471 276.241 66.5591C274.799 66.5872 273.543 66.6279 272.474 66.6812C271.473 66.6763 270.502 66.6736 269.562 66.6729C268.627 66.6099 267.658 66.576 266.656 66.5711C265.717 66.5705 264.561 66.5239 263.189 66.4315C262.661 66.8344 262.282 67.3414 262.053 67.9523C261.886 68.5675 261.541 69.0454 261.017 69.3859C260.438 70.5371 259.978 71.3205 259.637 71.736C259.3 72.0892 259.05 72.5421 258.888 73.095C257.939 74.1586 257.049 75.2888 256.216 76.4856C255.45 77.6242 254.564 78.692 253.557 79.6891C253.386 80.3667 253.095 80.9734 252.683 81.5095C252.338 81.9873 252.073 82.6586 251.89 83.5232C251.141 84.4124 250.573 85.4077 250.185 86.5091C249.798 87.6106 249.313 88.7681 248.73 89.9817C248.571 90.4721 248.382 90.9605 248.161 91.4468C248.007 91.8749 247.82 92.3321 247.599 92.8183C247.308 93.4251 246.956 93.9965 246.544 94.5325C246.198 95.0104 245.849 95.5506 245.495 96.1532C245.362 96.2695 245.287 96.4524 245.27 96.7018C245.258 96.8889 245.216 97.0427 245.145 97.1632C244.929 97.5871 244.714 97.9799 244.502 98.3414C244.294 98.6406 244.117 98.9419 243.971 99.2453C243.826 99.5487 243.709 99.8853 243.621 100.255C243.6 100.567 243.517 100.875 243.371 101.178C243.296 101.361 243.221 101.544 243.146 101.727C243.076 101.847 243.003 101.999 242.928 102.182C242.682 103.042 242.642 103.635 242.808 103.959C242.974 104.283 243.109 104.606 243.213 104.926C243.312 105.308 243.414 105.66 243.518 105.98C243.625 106.238 243.7 106.525 243.741 106.841C244.045 106.986 244.317 107.13 244.558 107.272C244.862 107.417 245.169 107.501 245.481 107.522C245.851 107.609 246.267 107.481 246.728 107.136C247.194 106.729 247.585 106.505 247.901 106.463C248.346 106.368 248.756 106.333 249.13 106.358C249.566 106.387 249.947 106.319 250.271 106.153C250.666 105.867 250.999 105.576 251.27 105.281C251.54 104.986 251.898 104.791 252.343 104.695C253.357 104.513 253.9 104.362 253.971 104.241C254.046 104.058 254.281 103.824 254.676 103.537C255.133 103.255 255.526 102.999 255.855 102.771C256.25 102.484 256.708 102.202 257.227 101.924C257.872 101.654 258.228 101.49 258.294 101.432C258.423 101.378 258.718 101.178 259.18 100.834C259.825 100.564 260.378 100.257 260.84 99.9118C261.301 99.5671 261.823 99.2577 262.406 98.9837C263.046 98.7763 263.431 98.6456 263.559 98.5916C263.693 98.4753 263.761 98.386 263.765 98.3236C263.832 98.2655 263.901 98.1761 263.971 98.0556C264.105 97.9393 264.431 97.7421 264.951 97.4639C265.234 96.9818 265.542 96.5954 265.875 96.3046C266.208 96.0138 266.609 95.6337 267.079 95.1642C267.483 94.7529 267.882 94.404 268.277 94.1174C268.735 93.835 269.13 93.5484 269.463 93.2576C269.658 93.1455 269.822 93.0313 269.956 92.915C270.093 92.7363 270.319 92.6263 270.635 92.5849C271.031 92.2983 271.328 92.0678 271.528 91.8933C271.794 91.6607 272.191 91.3429 272.72 90.94C272.853 90.8237 273.019 90.6783 273.219 90.5038C273.418 90.3294 273.583 90.2151 273.712 90.1612C273.961 90.178 274.142 90.2841 274.254 90.4796C274.428 90.6793 274.64 90.7875 274.89 90.8043C274.773 91.6108 274.706 92.1387 274.689 92.3882C274.677 92.5752 274.599 92.7893 274.458 93.0303C274.046 93.5664 273.588 93.8487 273.085 93.8775C272.645 93.9105 272.279 94.2303 271.987 94.8371C271.808 94.6998 271.561 94.6518 271.245 94.6932C270.992 94.7387 270.798 94.8196 270.665 94.936C270.773 95.1938 270.821 95.4163 270.808 95.6033C270.795 95.7904 270.812 96.0108 270.857 96.2644C269.659 97.3112 268.85 98.165 268.43 98.8258C267.627 99.586 267.19 100.026 267.119 100.147C267.053 100.205 267.019 100.234 267.019 100.234C267.019 100.234 266.986 100.263 266.92 100.321C266.853 100.38 266.62 100.583 266.221 100.932C265.301 101.559 264.603 102.17 264.124 102.764C263.646 103.358 262.953 103.875 262.046 104.315C261.327 104.768 260.834 105.111 260.568 105.343C260.301 105.576 259.904 105.894 259.376 106.297C259.11 106.529 258.841 106.793 258.571 107.088C258.367 107.325 258.101 107.558 257.772 107.786C257.315 108.068 256.859 108.32 256.406 108.54C256.015 108.764 255.651 109.052 255.314 109.406C254.349 109.779 253.63 110.232 253.155 110.764C252.743 111.3 252.115 111.79 251.271 112.234C250.685 112.57 249.874 112.986 248.838 113.48C247.865 113.978 247.027 114.329 246.324 114.532C246.133 114.581 245.942 114.631 245.75 114.681C245.621 114.735 245.461 114.787 245.27 114.837C244.792 114.491 244.314 114.146 243.836 113.8C243.421 113.459 243.076 112.997 242.802 112.415C242.27 111.941 241.824 111.598 241.462 111.385C241.163 111.177 240.868 110.907 240.577 110.574C240.025 109.472 239.379 108.364 238.64 107.249C237.963 106.138 237.451 104.914 237.102 103.575C236.994 103.317 236.918 103.061 236.872 102.807C236.893 102.496 236.883 102.182 236.842 101.866C236.75 101.358 236.655 100.914 236.556 100.531C236.456 100.148 236.456 99.6787 236.557 99.1216C236.582 98.7475 236.671 98.3463 236.826 97.9182C236.98 97.4901 237.136 97.0308 237.294 96.5404C237.598 95.7465 237.931 94.9859 238.294 94.2586C238.718 93.5355 239.053 92.7438 239.299 91.8834C239.533 91.21 239.762 90.599 239.987 90.0504C240.211 89.5018 240.472 88.8929 240.767 88.2238C240.913 87.9204 240.994 87.644 241.011 87.3945C241.094 87.0869 241.296 86.8813 241.616 86.7776C241.95 85.5472 242.435 84.3897 243.072 83.305C243.713 82.158 244.35 81.0734 244.982 80.0511C245.757 78.7878 246.47 77.4891 247.124 76.155C247.84 74.8251 248.585 73.5285 249.359 72.2652C249.472 71.5211 249.764 70.9143 250.234 70.4448C250.342 69.7631 250.636 69.1251 251.114 68.5309C251.597 67.8744 251.955 67.2094 252.188 66.5361C251.515 66.3028 250.736 66.2503 249.85 66.3786C249.031 66.4487 248.305 66.5251 247.673 66.6078C246.547 66.5945 245.362 66.5147 244.119 66.3684C243.687 66.2766 243.254 66.1848 242.822 66.0931C242.456 65.9431 242.086 65.8556 241.712 65.8304C241.147 65.8549 240.712 65.7943 240.409 65.6486C240.172 65.4447 239.894 65.3946 239.573 65.4984C238.809 64.7578 238.248 64.2502 237.891 63.9756C237.533 63.7009 237.205 63.4596 236.906 63.2515C236.548 62.9768 236.253 62.7064 236.021 62.4402C235.73 62.1074 235.51 61.6541 235.361 61.0802C235.373 60.8932 235.477 60.7436 235.673 60.6314C235.868 60.5193 236.033 60.4051 236.166 60.2888C236.673 60.1977 237.236 60.2043 237.856 60.3087C238.479 60.3507 238.987 60.2596 239.378 60.0353C240.367 60.2273 241.275 60.2258 242.103 60.031C242.993 59.8404 243.903 59.8078 244.834 59.9331C245.021 59.9457 245.206 59.9895 245.389 60.0645C245.572 60.1394 245.757 60.1832 245.944 60.1958C246.252 60.2792 246.501 60.296 246.692 60.2462C246.946 60.2007 247.231 60.1572 247.547 60.1159C247.925 60.0787 248.331 60.106 248.763 60.1978C249.195 60.2895 249.632 60.319 250.072 60.286C250.887 60.2783 251.848 60.4369 252.953 60.762C254.125 61.0288 255.159 61.0358 256.053 60.7828C256.423 59.9308 256.825 59.0809 257.258 58.2331C257.757 57.3271 258.161 56.446 258.47 55.5898C258.744 55.2324 259.021 54.8439 259.3 54.4242C259.583 53.9421 259.801 53.487 259.956 53.0589C260.372 52.4606 260.686 51.9806 260.898 51.619C261.173 51.2617 261.479 50.9064 261.816 50.5533C262.311 49.7097 262.679 48.8888 262.921 48.0908C263.229 47.2346 263.604 46.3202 264.046 45.3477C264.915 44.5292 265.797 43.5238 266.692 42.3312C267.124 42.423 267.475 42.3213 267.746 42.0264C268.079 41.7356 268.513 41.7962 269.049 42.2081C269.037 42.3952 269.086 42.5865 269.198 42.7819C269.377 42.9193 269.394 43.1396 269.248 43.443C269.539 43.7758 269.769 44.0732 269.939 44.3353C270.11 44.5973 270.247 44.8884 270.35 45.2086C270.442 45.7159 270.339 46.3041 270.044 46.9732C269.815 47.5842 269.837 48.1808 270.111 48.7631C270.215 49.0832 270.225 49.3971 270.141 49.7047C270.062 49.95 270.077 50.2015 270.185 50.4593C270.288 50.7795 270.423 51.1018 270.589 51.4262C270.818 51.7548 270.915 52.1686 270.882 52.6674C270.869 52.8545 270.79 53.0997 270.644 53.4031C270.565 53.6484 270.452 53.9227 270.307 54.2261C269.994 55.1446 269.763 55.7868 269.613 56.1526C269.463 56.5183 269.311 56.9152 269.157 57.3433C268.687 57.8128 268.446 58.1411 268.433 58.3282C268.425 58.4529 268.385 58.5755 268.314 58.696C268.102 59.0576 267.852 59.5105 267.565 60.055C267.344 60.5412 267.13 60.934 266.922 61.2332Z" fill="black"/>
<g filter="url(#filter1_di_3_445)">
<circle cx="161.5" cy="14.5" r="14.5" fill="#535252"/>
</g>
</g>
<defs>
<filter id="filter0_d_3_445" x="0" y="0" width="315.51" height="141.696" filterUnits="userSpaceOnUse" color-interpolation-filters="sRGB">
<feFlood flood-opacity="0" result="BackgroundImageFix"/>
<feColorMatrix in="SourceAlpha" type="matrix" values="0 0 0 0 0 0 0 0 0 0 0 0 0 0 0 0 0 0 127 0" result="hardAlpha"/>
<feOffset dy="4"/>
<feGaussianBlur stdDeviation="2"/>
<feComposite in2="hardAlpha" operator="out"/>
<feColorMatrix type="matrix" values="0 0 0 0 0 0 0 0 0 0 0 0 0 0 0 0 0 0 0.25 0"/>
<feBlend mode="normal" in2="BackgroundImageFix" result="effect1_dropShadow_3_445"/>
<feBlend mode="normal" in="SourceGraphic" in2="effect1_dropShadow_3_445" result="shape"/>
</filter>
<filter id="filter1_di_3_445" x="143" y="-4" width="37" height="41" filterUnits="userSpaceOnUse" color-interpolation-filters="sRGB">
<feFlood flood-opacity="0" result="BackgroundImageFix"/>
<feColorMatrix in="SourceAlpha" type="matrix" values="0 0 0 0 0 0 0 0 0 0 0 0 0 0 0 0 0 0 127 0" result="hardAlpha"/>
<feOffset dy="4"/>
<feGaussianBlur stdDeviation="2"/>
<feComposite in2="hardAlpha" operator="out"/>
<feColorMatrix type="matrix" values="0 0 0 0 0 0 0 0 0 0 0 0 0 0 0 0 0 0 0.25 0"/>
<feBlend mode="normal" in2="BackgroundImageFix" result="effect1_dropShadow_3_445"/>
<feBlend mode="normal" in="SourceGraphic" in2="effect1_dropShadow_3_445" result="shape"/>
<feColorMatrix in="SourceAlpha" type="matrix" values="0 0 0 0 0 0 0 0 0 0 0 0 0 0 0 0 0 0 127 0" result="hardAlpha"/>
<feOffset dy="-4"/>
<feGaussianBlur stdDeviation="2"/>
<feComposite in2="hardAlpha" operator="arithmetic" k2="-1" k3="1"/>
<feColorMatrix type="matrix" values="0 0 0 0 0 0 0 0 0 0 0 0 0 0 0 0 0 0 0.25 0"/>
<feBlend mode="normal" in2="shape" result="effect2_innerShadow_3_445"/>
</filter>
</defs>
</svg>
